<svg width="64" height="64" viewBox="0 0 64 64" fill="none" xmlns="http://www.w3.org/2000/svg">
  <!-- Background with emerald gradient -->
  <defs>
    <linearGradient id="emeraldGradient" x1="0%" y1="0%" x2="100%" y2="100%">
      <stop offset="0%" style="stop-color:#10b981;stop-opacity:1" />
      <stop offset="100%" style="stop-color:#059669;stop-opacity:1" />
    </linearGradient>
    <filter id="shadow" x="-50%" y="-50%" width="200%" height="200%">
      <feDropShadow dx="0" dy="2" stdDeviation="3" flood-color="#000000" flood-opacity="0.3"/>
    </filter>
  </defs>
  
  <!-- Rounded rectangle background -->
  <rect width="64" height="64" rx="16" ry="16" fill="url(#emeraldGradient)" filter="url(#shadow)"/>
  
  <!-- Inner highlight for depth -->
  <rect x="2" y="2" width="60" height="60" rx="14" ry="14" fill="none" stroke="rgba(255,255,255,0.2)" stroke-width="1"/>
  
  <!-- First K -->
  <g fill="white">
    <!-- Vertical line of first K -->
    <rect x="10" y="14" width="3" height="24" rx="1.5"/>
    <!-- Upper diagonal of first K -->
    <path d="M13 26 L23 14 L26 16.5 L16 28.5 Z" fill="white"/>
    <!-- Lower diagonal of first K -->
    <path d="M13 26 L23 38 L26 35.5 L16 23.5 Z" fill="white"/>
  </g>
  
  <!-- Second K -->
  <g fill="white">
    <!-- Vertical line of second K -->
    <rect x="35" y="14" width="3" height="24" rx="1.5"/>
    <!-- Upper diagonal of second K -->
    <path d="M38 26 L48 14 L51 16.5 L41 28.5 Z" fill="white"/>
    <!-- Lower diagonal of second K -->
    <path d="M38 26 L48 38 L51 35.5 L41 23.5 Z" fill="white"/>
  </g>
  
  <!-- Small dollar sign accent -->
  <g fill="rgba(255,255,255,0.9)" font-family="Arial, sans-serif" font-size="8" font-weight="bold">
    <text x="32" y="52" text-anchor="middle">$</text>
  </g>
</svg>